<?xml version="1.0" encoding="utf-8"?>
<!-- Generator: Adobe Illustrator 24.3.2, SVG Export Plug-In . SVG Version: 6.00 Build 0)  -->
<svg version="1.1" id="Layer_1" xmlns="http://www.w3.org/2000/svg" xmlns:xlink="http://www.w3.org/1999/xlink" x="0px" y="0px"
	 viewBox="0 0 800 1291" style="enable-background:new 0 0 800 1291;" xml:space="preserve">
<style type="text/css">
	.st0{fill:none;stroke:#FFFFFF;stroke-miterlimit:10;}
	.st1{fill:#FFFFFF;}
	.st2{fill:none;stroke:#FFF000;stroke-miterlimit:10;}
	.st3{fill:#FFF000;}
	.st4{font-family:'Roboto-Bold';}
	.st5{font-size:24px;}
	.st6{fill:#231815;}
	.st7{fill:#AB6B48;}
	.st8{font-size:36px;}
	.st9{fill:#A49273;}
	.st10{font-size:42px;}
	.st11{fill:#070605;}
	.st12{fill:none;}
	.st13{font-family:'Roboto-Regular';}
</style>
<rect x="-41" y="-23" width="864" height="1327"/>
<image style="overflow:visible;" width="640" height="891" xlink:href="90297234F5CA187E.png"  transform="matrix(1 0 0 1 51 209)">
</image>
<g>
	<g>
		<line class="st0" x1="286.3" y1="666.4" x2="286.3" y2="701.1"/>
		<g>
			<path class="st1" d="M281.5,694.3c0.2-0.1,0.5-0.1,0.7,0.2l4.1,6.5l4.1-6.5c0.1-0.2,0.5-0.3,0.7-0.2s0.3,0.5,0.2,0.7l-4.5,7.1
				c-0.1,0.1-0.3,0.2-0.4,0.2s-0.3-0.1-0.4-0.2l-4.5-7.1c-0.1-0.1-0.1-0.2-0.1-0.3C281.2,694.5,281.3,694.3,281.5,694.3z"/>
		</g>
	</g>
</g>
<g>
	<g>
		<line class="st0" x1="477.3" y1="666.4" x2="477.3" y2="701.1"/>
		<g>
			<path class="st1" d="M472.5,694.3c0.2-0.1,0.5-0.1,0.7,0.2l4.1,6.5l4.1-6.5c0.1-0.2,0.5-0.3,0.7-0.2s0.3,0.5,0.2,0.7l-4.5,7.1
				c-0.1,0.1-0.3,0.2-0.4,0.2s-0.3-0.1-0.4-0.2l-4.5-7.1c-0.1-0.1-0.1-0.2-0.1-0.3C472.3,694.5,472.3,694.3,472.5,694.3z"/>
		</g>
	</g>
</g>
<g>
	<g>
		<line class="st0" x1="286.3" y1="868.7" x2="286.3" y2="903.4"/>
		<g>
			<path class="st1" d="M281.5,896.5c0.2-0.1,0.5-0.1,0.7,0.2l4.1,6.5l4.1-6.5c0.1-0.2,0.5-0.3,0.7-0.2s0.3,0.5,0.2,0.7l-4.5,7.1
				c-0.1,0.1-0.3,0.2-0.4,0.2s-0.3-0.1-0.4-0.2l-4.5-7.1c-0.1-0.1-0.1-0.2-0.1-0.3C281.2,896.8,281.3,896.6,281.5,896.5z"/>
		</g>
	</g>
</g>
<g>
	<g>
		<line class="st0" x1="477.3" y1="868.7" x2="477.3" y2="903.4"/>
		<g>
			<path class="st1" d="M472.5,896.5c0.2-0.1,0.5-0.1,0.7,0.2l4.1,6.5l4.1-6.5c0.1-0.2,0.5-0.3,0.7-0.2s0.3,0.5,0.2,0.7l-4.5,7.1
				c-0.1,0.1-0.3,0.2-0.4,0.2s-0.3-0.1-0.4-0.2l-4.5-7.1c-0.1-0.1-0.1-0.2-0.1-0.3C472.3,896.8,472.3,896.6,472.5,896.5z"/>
		</g>
	</g>
</g>
<g>
	<g>
		<line class="st2" x1="381.7" y1="461.7" x2="381.7" y2="621.2"/>
		<g>
			<path class="st3" d="M376.9,614.4c0.2-0.1,0.5-0.1,0.7,0.2l4.1,6.5l4.1-6.5c0.1-0.2,0.5-0.3,0.7-0.2s0.3,0.5,0.2,0.7l-4.5,7.1
				c-0.1,0.1-0.3,0.2-0.4,0.2s-0.3-0.1-0.4-0.2l-4.5-7.1c-0.1-0.1-0.1-0.2-0.1-0.3C376.7,614.7,376.8,614.5,376.9,614.4z"/>
		</g>
	</g>
</g>
<g>
	<text transform="matrix(1 0 0 1 74.2998 195.8784)" class="st1 st4 st5">Scrap iron</text>
</g>
<g>
	<text transform="matrix(1 0 0 1 333.0508 701.9214)" class="st6 st4 st5">Scrap iron</text>
</g>
<g>
	<text transform="matrix(1 0 0 1 521.3867 195.8784)" class="st1 st4 st5">Charcoal</text>
</g>
<g>
	<text transform="matrix(1 0 0 1 342.0078 846.9507)" class="st6 st4 st5">Charcoal</text>
</g>
<g>
	<text transform="matrix(1 0 0 1 321.9736 195.8784)" class="st1 st4 st5">Wood</text>
</g>
<g>
	<text transform="matrix(1 0 0 1 357.0303 994.6011)" class="st6 st4 st5">Wood</text>
</g>
<text transform="matrix(1 0 0 1 98.3135 113.1187)" class="st7 st4 st8">SCRAP IRON AND FIRE</text>
<g>
	<text transform="matrix(1 0 0 1 5.8604 49.3237)" class="st9 st4 st10">BACKSTAGE</text>
</g>
<g>
	<path class="st7" d="M48.1,74.5H6.2v53.3h63.3V95.9C69.5,84.1,60,74.5,48.1,74.5z"/>
	<g>
		<text transform="matrix(1 0 0 1 17.2148 114.4878)" class="st11 st4 st8">01</text>
	</g>
</g>
<rect x="252.4" y="1208.7" class="st12" width="508.4" height="81.9"/>
<text transform="matrix(1 0 0 1 252.3848 1226.6538)"><tspan x="0" y="0" class="st1 st13 st5">A typical performance involves a team of 12, </tspan><tspan x="0" y="28.8" class="st1 st13 st5">with four performers taking the stage</tspan></text>
<rect x="6.5" y="461.7" class="st12" width="280.3" height="158"/>
<text transform="matrix(1 0 0 1 6.4561 479.6538)"><tspan x="0" y="0" class="st1 st13 st5">The furnace has three </tspan><tspan x="0" y="28.8" class="st1 st13 st5">parts that are assembled </tspan><tspan x="0" y="57.6" class="st1 st13 st5">and sealed. Then is filled </tspan><tspan x="0" y="86.4" class="st1 st13 st5">with wood, coal and scrap </tspan><tspan x="0" y="115.2" class="st1 st13 st5">iron </tspan></text>
<g>
	<g>
		<circle class="st1" cx="67.2" cy="1217.5" r="4.1"/>
		<path class="st1" d="M74.4,1215.6h-2.7l-1.3-3.8c-0.6-1.7-1.8-2.7-3.2-2.7c-1.4,0-2.7,1.1-3.2,2.7l-1.3,3.8h-2.7
			c-0.2,0-0.3,0.2-0.3,0.4s0.1,0.4,0.3,0.4h2.9c0,0,0,0,0,0l0,0h8.7l0,0c0,0,0,0,0,0h2.9c0.2,0,0.3-0.2,0.3-0.4
			S74.6,1215.6,74.4,1215.6z"/>
	</g>
	<path class="st1" d="M69.1,1258.4c1.5,0,2.7-1.2,2.7-2.7v-14.8h3.3v-14.8c0-1.5-1.2-2.7-2.7-2.7H68h-1.6h-4.1
		c-1.5,0-2.7,1.2-2.7,2.7v14.8H63v14.8c0,1.5,1.2,2.7,2.7,2.7H69.1z"/>
</g>
<g>
	<g>
		<circle class="st1" cx="92.1" cy="1217.5" r="4.1"/>
		<path class="st1" d="M99.4,1215.6h-2.7l-1.3-3.8c-0.6-1.7-1.8-2.7-3.2-2.7c-1.4,0-2.7,1.1-3.2,2.7l-1.3,3.8h-2.7
			c-0.2,0-0.3,0.2-0.3,0.4s0.1,0.4,0.3,0.4h2.9c0,0,0,0,0,0l0,0h8.7l0,0c0,0,0,0,0,0h2.9c0.2,0,0.3-0.2,0.3-0.4
			S99.5,1215.6,99.4,1215.6z"/>
	</g>
	<path class="st1" d="M94.1,1258.4c1.5,0,2.7-1.2,2.7-2.7v-14.8h3.3v-14.8c0-1.5-1.2-2.7-2.7-2.7h-4.5h-1.6h-4.1
		c-1.5,0-2.7,1.2-2.7,2.7v14.8h3.3v14.8c0,1.5,1.2,2.7,2.7,2.7H94.1z"/>
</g>
<g>
	<g>
		<circle class="st1" cx="117.1" cy="1217.5" r="4.1"/>
		<path class="st1" d="M124.3,1215.6h-2.7l-1.3-3.8c-0.6-1.7-1.8-2.7-3.2-2.7c-1.4,0-2.7,1.1-3.2,2.7l-1.3,3.8h-2.7
			c-0.2,0-0.3,0.2-0.3,0.4s0.1,0.4,0.3,0.4h2.9c0,0,0,0,0,0l0,0h8.7l0,0c0,0,0,0,0,0h2.9c0.2,0,0.3-0.2,0.3-0.4
			S124.5,1215.6,124.3,1215.6z"/>
	</g>
	<path class="st1" d="M119.1,1258.4c1.5,0,2.7-1.2,2.7-2.7v-14.8h3.3v-14.8c0-1.5-1.2-2.7-2.7-2.7h-4.5h-1.6h-4.1
		c-1.5,0-2.7,1.2-2.7,2.7v14.8h3.3v14.8c0,1.5,1.2,2.7,2.7,2.7H119.1z"/>
</g>
<g>
	<g>
		<circle class="st1" cx="142" cy="1217.5" r="4.1"/>
		<path class="st1" d="M149.3,1215.6h-2.7l-1.3-3.8c-0.6-1.7-1.8-2.7-3.2-2.7c-1.4,0-2.7,1.1-3.2,2.7l-1.3,3.8h-2.7
			c-0.2,0-0.3,0.2-0.3,0.4s0.1,0.4,0.3,0.4h2.9c0,0,0,0,0,0l0,0h8.7l0,0c0,0,0,0,0,0h2.9c0.2,0,0.3-0.2,0.3-0.4
			S149.5,1215.6,149.3,1215.6z"/>
	</g>
	<path class="st1" d="M144,1258.4c1.5,0,2.7-1.2,2.7-2.7v-14.8h3.3v-14.8c0-1.5-1.2-2.7-2.7-2.7h-4.5h-1.6h-4.1
		c-1.5,0-2.7,1.2-2.7,2.7v14.8h3.3v14.8c0,1.5,1.2,2.7,2.7,2.7H144z"/>
</g>
<g>
	<g>
		<circle class="st1" cx="167" cy="1217.5" r="4.1"/>
		<path class="st1" d="M174.3,1215.6h-2.7l-1.3-3.8c-0.6-1.7-1.8-2.7-3.2-2.7c-1.4,0-2.7,1.1-3.2,2.7l-1.3,3.8h-2.7
			c-0.2,0-0.3,0.2-0.3,0.4s0.1,0.4,0.3,0.4h2.9c0,0,0,0,0,0l0,0h8.7l0,0c0,0,0,0,0,0h2.9c0.2,0,0.3-0.2,0.3-0.4
			S174.4,1215.6,174.3,1215.6z"/>
	</g>
	<path class="st1" d="M169,1258.4c1.5,0,2.7-1.2,2.7-2.7v-14.8h3.3v-14.8c0-1.5-1.2-2.7-2.7-2.7h-4.5h-1.6h-4.1
		c-1.5,0-2.7,1.2-2.7,2.7v14.8h3.3v14.8c0,1.5,1.2,2.7,2.7,2.7H169z"/>
</g>
<g>
	<g>
		<circle class="st1" cx="192" cy="1217.5" r="4.1"/>
		<path class="st1" d="M199.2,1215.6h-2.7l-1.3-3.8c-0.6-1.7-1.8-2.7-3.2-2.7c-1.4,0-2.7,1.1-3.2,2.7l-1.3,3.8h-2.7
			c-0.2,0-0.3,0.2-0.3,0.4s0.1,0.4,0.3,0.4h2.9c0,0,0,0,0,0l0,0h8.7l0,0c0,0,0,0,0,0h2.9c0.2,0,0.3-0.2,0.3-0.4
			S199.4,1215.6,199.2,1215.6z"/>
	</g>
	<path class="st1" d="M193.9,1258.4c1.5,0,2.7-1.2,2.7-2.7v-14.8h3.3v-14.8c0-1.5-1.2-2.7-2.7-2.7h-4.5h-1.6h-4.1
		c-1.5,0-2.7,1.2-2.7,2.7v14.8h3.3v14.8c0,1.5,1.2,2.7,2.7,2.7H193.9z"/>
</g>
<g>
	<g>
		<circle class="st1" cx="67.2" cy="1156.5" r="4.1"/>
		<path class="st1" d="M74.4,1154.6h-2.7l-1.3-3.8c-0.6-1.7-1.8-2.7-3.2-2.7c-1.4,0-2.7,1.1-3.2,2.7l-1.3,3.8h-2.7
			c-0.2,0-0.3,0.2-0.3,0.4s0.1,0.4,0.3,0.4h2.9c0,0,0,0,0,0l0,0h8.7l0,0c0,0,0,0,0,0h2.9c0.2,0,0.3-0.2,0.3-0.4
			S74.6,1154.6,74.4,1154.6z"/>
	</g>
	<path class="st1" d="M69.1,1197.4c1.5,0,2.7-1.2,2.7-2.7v-14.8h3.3v-14.8c0-1.5-1.2-2.7-2.7-2.7H68h-1.6h-4.1
		c-1.5,0-2.7,1.2-2.7,2.7v14.8H63v14.8c0,1.5,1.2,2.7,2.7,2.7H69.1z"/>
</g>
<g>
	<g>
		<circle class="st1" cx="92.1" cy="1156.5" r="4.1"/>
		<path class="st1" d="M99.4,1154.6h-2.7l-1.3-3.8c-0.6-1.7-1.8-2.7-3.2-2.7c-1.4,0-2.7,1.1-3.2,2.7l-1.3,3.8h-2.7
			c-0.2,0-0.3,0.2-0.3,0.4s0.1,0.4,0.3,0.4h2.9c0,0,0,0,0,0l0,0h8.7l0,0c0,0,0,0,0,0h2.9c0.2,0,0.3-0.2,0.3-0.4
			S99.5,1154.6,99.4,1154.6z"/>
	</g>
	<path class="st1" d="M94.1,1197.4c1.5,0,2.7-1.2,2.7-2.7v-14.8h3.3v-14.8c0-1.5-1.2-2.7-2.7-2.7h-4.5h-1.6h-4.1
		c-1.5,0-2.7,1.2-2.7,2.7v14.8h3.3v14.8c0,1.5,1.2,2.7,2.7,2.7H94.1z"/>
</g>
<g>
	<g>
		<circle class="st1" cx="117.1" cy="1156.5" r="4.1"/>
		<path class="st1" d="M124.3,1154.6h-2.7l-1.3-3.8c-0.6-1.7-1.8-2.7-3.2-2.7c-1.4,0-2.7,1.1-3.2,2.7l-1.3,3.8h-2.7
			c-0.2,0-0.3,0.2-0.3,0.4s0.1,0.4,0.3,0.4h2.9c0,0,0,0,0,0l0,0h8.7l0,0c0,0,0,0,0,0h2.9c0.2,0,0.3-0.2,0.3-0.4
			S124.5,1154.6,124.3,1154.6z"/>
	</g>
	<path class="st1" d="M119.1,1197.4c1.5,0,2.7-1.2,2.7-2.7v-14.8h3.3v-14.8c0-1.5-1.2-2.7-2.7-2.7h-4.5h-1.6h-4.1
		c-1.5,0-2.7,1.2-2.7,2.7v14.8h3.3v14.8c0,1.5,1.2,2.7,2.7,2.7H119.1z"/>
</g>
<g>
	<g>
		<circle class="st1" cx="142" cy="1156.5" r="4.1"/>
		<path class="st1" d="M149.3,1154.6h-2.7l-1.3-3.8c-0.6-1.7-1.8-2.7-3.2-2.7c-1.4,0-2.7,1.1-3.2,2.7l-1.3,3.8h-2.7
			c-0.2,0-0.3,0.2-0.3,0.4s0.1,0.4,0.3,0.4h2.9c0,0,0,0,0,0l0,0h8.7l0,0c0,0,0,0,0,0h2.9c0.2,0,0.3-0.2,0.3-0.4
			S149.5,1154.6,149.3,1154.6z"/>
	</g>
	<path class="st1" d="M144,1197.4c1.5,0,2.7-1.2,2.7-2.7v-14.8h3.3v-14.8c0-1.5-1.2-2.7-2.7-2.7h-4.5h-1.6h-4.1
		c-1.5,0-2.7,1.2-2.7,2.7v14.8h3.3v14.8c0,1.5,1.2,2.7,2.7,2.7H144z"/>
</g>
<g>
	<g>
		<circle class="st1" cx="167" cy="1156.5" r="4.1"/>
		<path class="st1" d="M174.3,1154.6h-2.7l-1.3-3.8c-0.6-1.7-1.8-2.7-3.2-2.7c-1.4,0-2.7,1.1-3.2,2.7l-1.3,3.8h-2.7
			c-0.2,0-0.3,0.2-0.3,0.4s0.1,0.4,0.3,0.4h2.9c0,0,0,0,0,0l0,0h8.7l0,0c0,0,0,0,0,0h2.9c0.2,0,0.3-0.2,0.3-0.4
			S174.4,1154.6,174.3,1154.6z"/>
	</g>
	<path class="st1" d="M169,1197.4c1.5,0,2.7-1.2,2.7-2.7v-14.8h3.3v-14.8c0-1.5-1.2-2.7-2.7-2.7h-4.5h-1.6h-4.1
		c-1.5,0-2.7,1.2-2.7,2.7v14.8h3.3v14.8c0,1.5,1.2,2.7,2.7,2.7H169z"/>
</g>
<g>
	<g>
		<circle class="st1" cx="192" cy="1156.5" r="4.1"/>
		<path class="st1" d="M199.2,1154.6h-2.7l-1.3-3.8c-0.6-1.7-1.8-2.7-3.2-2.7c-1.4,0-2.7,1.1-3.2,2.7l-1.3,3.8h-2.7
			c-0.2,0-0.3,0.2-0.3,0.4s0.1,0.4,0.3,0.4h2.9c0,0,0,0,0,0l0,0h8.7l0,0c0,0,0,0,0,0h2.9c0.2,0,0.3-0.2,0.3-0.4
			S199.4,1154.6,199.2,1154.6z"/>
	</g>
	<path class="st1" d="M193.9,1197.4c1.5,0,2.7-1.2,2.7-2.7v-14.8h3.3v-14.8c0-1.5-1.2-2.7-2.7-2.7h-4.5h-1.6h-4.1
		c-1.5,0-2.7,1.2-2.7,2.7v14.8h3.3v14.8c0,1.5,1.2,2.7,2.7,2.7H193.9z"/>
</g>
<text transform="matrix(1 0 0 1 339.0254 1069.0991)" class="st1 st13 st5">Furnace</text>
</svg>
