<?xml version="1.0" encoding="utf-8"?>
<!-- Generator: Adobe Illustrator 24.3.2, SVG Export Plug-In . SVG Version: 6.00 Build 0)  -->
<svg version="1.1" id="Layer_1" xmlns="http://www.w3.org/2000/svg" xmlns:xlink="http://www.w3.org/1999/xlink" x="0px" y="0px"
	 viewBox="0 0 800 780" style="enable-background:new 0 0 800 780;" xml:space="preserve">
<style type="text/css">
	@import url('https://fonts.googleapis.com/css?family=Roboto:300,400,700');
	.st0{opacity:0.8;}
	.st1{fill:none;stroke:#FFF000;stroke-miterlimit:10;}
	.st2{fill:#FFF000;}
	.st3{fill:#AB6B48;}
	.st4{font-family:'Roboto';font-weight: 700;}
	.st5{font-size:36px;}
	.st6{fill:#070605;}
	.st7{clip-path:url(#SVGID_2_);}
	.st8{fill:none;stroke:#3EBEEF;stroke-miterlimit:10;stroke-dasharray:2,1;}
	.st9{opacity:0.8;fill:none;stroke:#3EBEEF;stroke-miterlimit:10;stroke-dasharray:1,0.5;}
	.st10{fill:none;}
	.st11{fill:#FFFFFF;}
	.st12{font-family:'Roboto';font-weight: 400;}
	.st13{font-size:24px;}
	.st14{font-size:42px;}
	.st15{font-size:30px;}
	.st16{fill:none;stroke:#A49273;stroke-miterlimit:10;}
</style>
<rect x="-41" y="-23" width="864" height="1327"/>
<image style="overflow:visible;" width="800" height="470" xlink:href="B9721343AAF927C6.png"  transform="matrix(1 0 0 1 0.3079 280.5925)">
</image>
<g id="iron-piece.psd_2_" class="st0">
	
		<image style="overflow:visible;" width="1181" height="1423" id="iron-piece_2_" xlink:href="B9721343AAF927C2.jpg"  transform="matrix(7.910391e-02 0 0 7.910391e-02 369.6342 198.7617)">
	</image>
</g>
<g>
	<g>
		<path class="st1" d="M366.7,249.6H261.4c-37.6,0-43.1,18-43.1,40.3v22.1"/>
		<g>
			<path class="st2" d="M213.5,305.1c0.2-0.1,0.5-0.1,0.7,0.2l4.1,6.5l4.1-6.5c0.1-0.2,0.5-0.3,0.7-0.2s0.3,0.5,0.2,0.7l-4.5,7.1
				c-0.1,0.1-0.3,0.2-0.4,0.2s-0.3-0.1-0.4-0.2l-4.5-7.1c-0.1-0.1-0.1-0.2-0.1-0.3C213.3,305.4,213.4,305.2,213.5,305.1z"/>
		</g>
	</g>
</g>
<g>
	<text transform="matrix(1 0 0 1 82.1692 138.0574)" class="st3 st4 st5">MELTING THE IRON</text>
</g>
<g>
	<path class="st3" d="M43,99.4H1.1v53.3h63.3v-31.9C64.4,109,54.8,99.4,43,99.4z"/>
	<g>
		<text transform="matrix(1 0 0 1 12.0706 139.4265)" class="st6 st4 st5">02</text>
	</g>
</g>
<g class="st0">
	<defs>
		<path id="SVGID_1_" class="st0" d="M312.5,543.2l43.7,1.4v22c0,0-48.1,3.4-49.2,3.6c-1,0.3-48.3,1.6-48.3,1.6l-7.1-2.9l-4.1-6
			c0,0-7.1-9.7-0.4-18.6c0,0,3.9-1.8,5.5-2.3L312.5,543.2z"/>
	</defs>
	<clipPath id="SVGID_2_">
		<use xlink:href="#SVGID_1_"  style="overflow:visible;"/>
	</clipPath>
	<g class="st7">
		<line class="st8" x1="356.2" y1="549.5" x2="219.9" y2="541.9"/>
		<line class="st8" x1="356.2" y1="551.8" x2="219.9" y2="545.7"/>
		<line class="st8" x1="356.2" y1="554.1" x2="219.9" y2="549.5"/>
		<line class="st8" x1="356.2" y1="556.5" x2="219.9" y2="553.3"/>
		<line class="st8" x1="356.2" y1="558.8" x2="219.9" y2="557.1"/>
		<line class="st8" x1="356.2" y1="561.1" x2="219.9" y2="561"/>
		<line class="st8" x1="356.2" y1="563.5" x2="219.9" y2="564.8"/>
	</g>
</g>
<path class="st9" d="M304.4,543.2c0,0-25.7-2.4-27.7-8.2c-2.1-5.7,6.9-6.8,6.9-4.3s-0.7,4.3-3.8,4.3"/>
<path class="st9" d="M278,540.1c0,0-35.7,0-24.3-15.6c11.4-15.6,16.6,3.4,12.8,5c-3.8,1.6-5.2,5-9,0c-3.8-5,2.1-5.7,3.1-5.7"/>
<path class="st9" d="M303.3,567.7c0,0-25.8-0.4-28.5,5s6.1,7.5,6.4,5.1c0.3-2.4-0.2-4.4-3.3-4.7"/>
<path class="st9" d="M276.7,567.9c0,0-35.5-4-25.9,12.8s16.9-1.6,13.3-3.6c-3.6-2-4.6-5.6-9-1c-4.3,4.6,1.4,5.9,2.5,6"/>
<g>
	<g>
		<line class="st1" x1="417.3" y1="556.9" x2="368.6" y2="556.9"/>
		<g>
			<polygon class="st2" points="364.4,556.9 370.3,554.5 368.9,556.9 370.3,559.3 			"/>
		</g>
	</g>
</g>
<rect x="366.6" y="642.2" class="st10" width="177.6" height="81.4"/>
<text transform="matrix(1 0 0 1 366.5627 660.1711)"><tspan x="0" y="0" class="st11 st12 st13">Pressurized air </tspan><tspan x="0" y="28.8" class="st11 st12 st13">to melt the iron</tspan></text>
<rect x="287.2" y="367.5" class="st10" width="258.4" height="163.4"/>
<text transform="matrix(1 0 0 1 287.2083 385.5105)"><tspan x="0" y="0" class="st11 st12 st13">Approximately 500 </tspan><tspan x="0" y="28.8" class="st11 st12 st13">kilograms of scrap iron </tspan><tspan x="0" y="57.6" class="st11 st12 st13">is melted in a furnace </tspan><tspan x="0" y="86.4" class="st11 st12 st13">heated to over 1,600 C</tspan></text>
<text transform="matrix(1 0 0 1 483.8723 262.0339)"><tspan x="0" y="0" class="st11 st12 st14">500</tspan><tspan x="70.8" y="0" class="st11 st12 st15"> kg</tspan></text>
<text transform="matrix(1 0 0 1 21.5793 277.448)"><tspan x="0" y="0" class="st11 st12 st14">1,600 </tspan><tspan x="113" y="0" class="st11 st12 st15">ºC</tspan></text>
<line class="st16" x1="0.1" y1="40.5" x2="803.1" y2="40.5"/>
</svg>
