<?xml version="1.0" encoding="utf-8"?>
<!-- Generator: Adobe Illustrator 24.3.2, SVG Export Plug-In . SVG Version: 6.00 Build 0)  -->
<svg version="1.1" id="Layer_1" xmlns="http://www.w3.org/2000/svg" xmlns:xlink="http://www.w3.org/1999/xlink" x="0px" y="0px"
	 viewBox="0 0 800 874" style="enable-background:new 0 0 800 874;" xml:space="preserve">
<style type="text/css">
	@import url('https://fonts.googleapis.com/css?family=Roboto:300,400,700');
	.st0{fill:none;stroke:#A49273;stroke-miterlimit:10;}
	.st1{fill:none;stroke:#FFF000;stroke-miterlimit:10;}
	.st2{fill:#FFF000;}
	.st3{fill:#AB6B48;}
	.st4{font-family:'Roboto';font-weight: 700;}
	.st5{font-size:36px;}
	.st6{fill:#070605;}
	.st7{fill:none;}
	.st8{fill:#FFFFFF;}
	.st9{font-family:'Roboto';font-weight: 400;}
	.st10{font-size:24px;}
</style>
<rect x="-41" y="-23" width="864" height="1327"/>
<line class="st0" x1="0.1" y1="40.5" x2="803.1" y2="40.5"/>
<image style="overflow:visible;" width="793" height="621" xlink:href="5A536F19C78771F3.png"  transform="matrix(1 0 0 1 6 245)">
</image>
<g>
	<g>
		<line class="st1" x1="406.4" y1="408.7" x2="406.4" y2="506.5"/>
		<g>
			<path class="st2" d="M401.6,499.7c0.2-0.1,0.5-0.1,0.7,0.2l4.1,6.5l4.1-6.5c0.1-0.2,0.5-0.3,0.7-0.2s0.3,0.5,0.2,0.7l-4.5,7.1
				c-0.1,0.1-0.3,0.2-0.4,0.2s-0.3-0.1-0.4-0.2l-4.5-7.1c-0.1-0.1-0.1-0.2-0.1-0.3C401.4,499.9,401.5,499.7,401.6,499.7z"/>
		</g>
	</g>
</g>
<g>
	<text transform="matrix(1 0 0 1 82.9591 138.5131)" class="st3 st4 st5">IRON IN STAGE</text>
</g>
<g>
	<path class="st3" d="M43.8,99.9H1.8v53.3h63.3v-31.9C65.2,109.5,55.6,99.9,43.8,99.9z"/>
	<g>
		<text transform="matrix(1 0 0 1 12.8605 139.8802)" class="st6 st4 st5">04</text>
	</g>
</g>
<rect x="7" y="205.4" class="st7" width="379.8" height="163.4"/>
<text transform="matrix(1 0 0 1 7.0431 223.3998)"><tspan x="0" y="0" class="st8 st9 st10">Two men carry the melted iron to </tspan><tspan x="0" y="28.8" class="st8 st9 st10">the stage, where performers use </tspan><tspan x="0" y="57.6" class="st8 st9 st10">specially crafted willow scoops</tspan></text>
</svg>
