<?xml version="1.0" encoding="utf-8"?>
<!-- Generator: Adobe Illustrator 24.3.2, SVG Export Plug-In . SVG Version: 6.00 Build 0)  -->
<svg version="1.1" id="Layer_1" xmlns="http://www.w3.org/2000/svg" xmlns:xlink="http://www.w3.org/1999/xlink" x="0px" y="0px"
	 viewBox="0 0 800 890" style="enable-background:new 0 0 800 890;" xml:space="preserve">
<style type="text/css">
	.st0{fill:none;stroke:#A49273;stroke-miterlimit:10;}
	.st1{fill:none;stroke:#FFF000;stroke-miterlimit:10;}
	.st2{fill:#FFF000;}
	.st3{fill:#AB6B48;}
	.st4{font-family:'Roboto-Bold';}
	.st5{font-size:36px;}
	.st6{fill:#070605;}
	.st7{fill:none;}
	.st8{fill:#FFFFFF;}
	.st9{font-family:'Roboto-Regular';}
	.st10{font-size:24px;}
</style>
<rect x="-41" y="-23" width="864" height="1327"/>
<image style="overflow:visible;" width="800" height="843" xlink:href="throw-fire05-anim.gif"  transform="matrix(1 0 0 1 7 104)">
</image>
<line class="st0" x1="0.1" y1="40.5" x2="803.1" y2="40.5"/>
<g>
	<g>
		<path class="st1" d="M376.8,742.9c-16.1,13.1-34,24-53.4,32.2"/>
		<g>
			<path class="st2" d="M381.5,739c-2.9,1-6.7,1.9-9.6,1.8l4.4,2.6l1.7,4.8C378.4,745.3,379.9,741.6,381.5,739z"/>
		</g>
	</g>
</g>
<g>
	<g>
		<path class="st1" d="M457,561.3c0.2,3.9,0.3,7.9,0.3,11.8c0,49.7-16.5,95.5-44.4,132.3"/>
		<g>
			<path class="st2" d="M456.6,555.3c-0.9,2.9-2.5,6.5-4.2,8.8l4.6-2l4.8,1.4C459.8,561.5,457.8,558.1,456.6,555.3z"/>
		</g>
	</g>
</g>
<g>
	<g>
		<path class="st1" d="M363.4,393.3c37.9,26.5,67,64.6,82.2,109.1"/>
		<g>
			<path class="st2" d="M358.4,389.9c1.7,2.5,3.6,6,4.3,8.8l1.3-4.9l4.1-2.9C365.3,391.2,361.4,390.7,358.4,389.9z"/>
		</g>
	</g>
</g>
<g>
	<g>
		<line class="st1" x1="693.8" y1="493.2" x2="721.2" y2="478.6"/>
		<g>
			<path class="st2" d="M726.6,475.8c-2,2.3-4.3,5.5-5.3,8.2l-0.7-5l-3.8-3.4C719.6,476.3,723.6,476.2,726.6,475.8z"/>
		</g>
	</g>
</g>
<g>
	<g>
		<line class="st1" x1="470" y1="228.5" x2="476" y2="164.7"/>
		<g>
			<path class="st2" d="M476.5,158.7c0.8,2.9,2.2,6.6,3.9,9l-4.6-2.2l-4.9,1.3C473.1,164.8,475.2,161.4,476.5,158.7z"/>
		</g>
	</g>
</g>
<g>
	<g>
		<line class="st1" x1="631.4" y1="322.4" x2="669.6" y2="276.8"/>
		<g>
			<path class="st2" d="M673.5,272.2c-1,2.9-1.9,6.7-1.8,9.6l-2.5-4.4l-4.8-1.7C667.2,275.2,670.8,273.7,673.5,272.2z"/>
		</g>
	</g>
</g>
<g>
	<g>
		<line class="st1" x1="205.9" y1="298.4" x2="162.3" y2="256.7"/>
		<g>
			<path class="st2" d="M157.9,252.5c2.8,1.2,6.6,2.3,9.5,2.5l-4.5,2.3l-2,4.6C160.6,259,159.3,255.3,157.9,252.5z"/>
		</g>
	</g>
</g>
<g>
	<g>
		<line class="st1" x1="134" y1="553.9" x2="80.9" y2="565.3"/>
		<g>
			<path class="st2" d="M75,566.5c2.6-1.6,5.6-4.1,7.4-6.4l-0.7,5l2.7,4.3C81.8,568,77.9,567,75,566.5z"/>
		</g>
	</g>
</g>
<g>
	<text transform="matrix(1 0 0 1 80.3236 136.8782)" class="st3 st4 st5">THROWING THE CAST IRON </text>
</g>
<g>
	<path class="st3" d="M41.1,98.2H-0.8v53.3h63.3v-31.9C62.6,107.8,53,98.2,41.1,98.2z"/>
	<g>
		<text transform="matrix(1 0 0 1 10.225 138.2473)" class="st6 st4 st5">05</text>
	</g>
</g>
<rect x="2.4" y="180.4" class="st7" width="391.9" height="163.4"/>
<text transform="matrix(1 0 0 1 2.4076 198.429)"><tspan x="0" y="0" class="st8 st9 st10">Main performer throws the liquid </tspan><tspan x="0" y="28.8" class="st8 st9 st10">iron onto the cold wall</tspan></text>
<text transform="matrix(1 0 0 1 34.8793 542.8801)" class="st8 st9 st10">Sparks</text>
</svg>
