<?xml version="1.0" encoding="utf-8"?>
<!-- Generator: Adobe Illustrator 24.3.2, SVG Export Plug-In . SVG Version: 6.00 Build 0)  -->
<svg version="1.1" id="Layer_1" xmlns="http://www.w3.org/2000/svg" xmlns:xlink="http://www.w3.org/1999/xlink" x="0px" y="0px"
	 viewBox="0 0 800 845" style="enable-background:new 0 0 800 845;" xml:space="preserve">
<style type="text/css">
	@import url('https://fonts.googleapis.com/css?family=Roboto:300,400,700');
	.st0{fill:#A49273;}
	.st1{font-family:'Roboto';font-weight: 700;}
	.st2{font-size:42px;}
	.st3{fill:#231815;}
	.st4{font-size:34px;}
	.st5{fill:none;stroke:#D45E27;stroke-width:2;stroke-miterlimit:10;}
	.st6{fill:#D45E27;}
	.st7{fill:#E95513;}
	.st8{fill:#FFFFFF;}
	.st9{fill:none;}
	.st10{font-size:24px;}
</style>
<rect x="-41" y="-86" width="864" height="978"/>
<image style="overflow:visible;" width="808" height="740" xlink:href="FE324557354627A1.png"  transform="matrix(1 0 0 1 -13 0)">
</image>
<text transform="matrix(1 0 0 1 287.7665 413)" class="st3 st1 st4">HEBEI</text>
<g>
	<g>
		<g>
			<path class="st5" d="M529,285.8H319.5c-7.7,0-13.9,6.2-13.9,13.9v39.1"/>
			<g>
				<circle class="st6" cx="305.6" cy="338.8" r="3"/>
			</g>
		</g>
	</g>
	<path class="st7" d="M678.2,311.6h-217c-6.5,0-11.8-5.3-11.8-11.8V268c0-6.5,5.3-11.8,11.8-11.8h217c6.5,0,11.8,5.3,11.8,11.8v31.8
		C690,306.3,684.7,311.6,678.2,311.6z"/>
	<g>
		<text transform="matrix(1 0 0 1 459.1698 296.2141)" class="st8 st1 st4">Yuxian county</text>
	</g>
</g>
<g>
	<path class="st8" d="M582.9,645.3l-6-12.5l2.2-2.9l7.2,16l7.3,5.5l-1.9,2.6l-7.3-5.5L567,646l2.2-3L582.9,645.3z"/>
	<path class="st8" d="M605.9,639.1c-1.9,1.6-3.9,2.3-6.1,2.1s-4.2-1.3-6-3.4l-0.4-0.4c-1.2-1.4-2-2.8-2.4-4.3s-0.4-3,0-4.4
		s1.2-2.6,2.3-3.5c1.8-1.6,3.7-2.2,5.7-1.8c2,0.3,4,1.6,5.9,3.8l0.8,1l-9.3,8.1c1.2,1.3,2.6,2.1,4,2.3s2.8-0.2,4-1.3
		c0.8-0.7,1.4-1.5,1.7-2.3s0.4-1.7,0.3-2.7l2.4-0.1C609.2,634.7,608.2,637.1,605.9,639.1z M594.9,627c-0.9,0.8-1.4,1.9-1.5,3.1
		c0,1.2,0.4,2.6,1.3,3.9l6.9-6l-0.2-0.2c-1.1-1.1-2.2-1.8-3.4-1.9C596.9,625.8,595.9,626.1,594.9,627z"/>
	<path class="st8" d="M616.4,630.8l-2.6,1.7L599.4,611l2.6-1.7L616.4,630.8z"/>
	<path class="st8" d="M623.2,626.7l-2.7,1.6l-12.9-22.4l2.7-1.6L623.2,626.7z"/>
	<path class="st8" d="M622.4,616.3c-0.7-1.6-1.1-3.2-1-4.8s0.5-3,1.3-4.2s2-2.2,3.4-2.8c2.3-1,4.4-1.1,6.5-0.1
		c2.1,0.9,3.7,2.7,4.9,5.3l0.1,0.2c0.7,1.6,1.1,3.2,1,4.8c0,1.6-0.5,3-1.3,4.2s-2,2.2-3.5,2.9c-2.3,1-4.4,1-6.5,0.1
		s-3.7-2.7-4.9-5.3V616.3z M625.5,615.4c0.8,1.8,1.9,3.1,3.3,3.9c1.4,0.7,2.7,0.8,4.2,0.1c1.4-0.6,2.3-1.7,2.7-3.2
		c0.3-1.5,0.1-3.3-0.9-5.3c-0.8-1.8-1.9-3.1-3.3-3.8c-1.4-0.7-2.8-0.8-4.2-0.1c-1.4,0.6-2.3,1.7-2.6,3.2S624.5,613.3,625.5,615.4z"
		/>
	<path class="st8" d="M658.5,607.5l-1.6-14.3l2.9-1.1l1.4,18.9l-2.4,0.9l-9-11.4l0.8,14.4l-2.4,0.9L637,600.6l2.9-1.1L648,611
		l-0.8-14.3l2.4-0.9L658.5,607.5z"/>
	<path class="st8" d="M680.2,589.7c-2.8,0.7-5,0.8-6.7,0.5c-1.7-0.4-2.9-1.3-3.8-2.8c-1-1.7-1.1-3.4-0.4-5.3
		c0.7-1.9,2.1-3.4,4.3-4.6c1.5-0.8,2.9-1.3,4.4-1.4s2.8,0.2,4,0.8s2.1,1.5,2.8,2.7l-2.8,1.6c-0.7-1.3-1.7-2.1-3-2.3
		c-1.2-0.3-2.6,0-4.1,0.9c-1.4,0.8-2.3,1.7-2.7,2.8s-0.3,2.1,0.3,3.2c0.5,0.9,1.3,1.4,2.4,1.6c1.1,0.2,2.6,0,4.7-0.5
		c2.1-0.5,3.7-0.8,5.1-0.7c1.3,0,2.5,0.3,3.4,0.8s1.7,1.3,2.3,2.4c1,1.7,1.1,3.5,0.4,5.3s-2.2,3.4-4.5,4.6c-1.5,0.8-3,1.3-4.6,1.5
		s-3,0-4.2-0.6s-2.2-1.5-2.9-2.7l2.8-1.6c0.7,1.3,1.8,2,3.2,2.2s2.9-0.2,4.4-1.1c1.5-0.8,2.4-1.8,2.9-2.9c0.4-1.1,0.4-2.1-0.2-3.1
		c-0.6-1-1.4-1.6-2.5-1.8C684.1,589,682.4,589.2,680.2,589.7z"/>
	<path class="st8" d="M704.4,587c-2,1.5-4,2.1-6.3,1.8c-2.2-0.3-4.2-1.6-5.8-3.7l-0.4-0.5c-1.1-1.4-1.8-2.9-2.1-4.5
		c-0.3-1.5-0.2-3,0.2-4.4c0.5-1.4,1.3-2.5,2.4-3.4c1.9-1.5,3.8-2,5.8-1.5c2,0.4,3.9,1.8,5.7,4.1l0.8,1l-9.7,7.6
		c1.1,1.4,2.4,2.2,3.9,2.5s2.8-0.1,4-1c0.9-0.7,1.5-1.4,1.8-2.2s0.5-1.7,0.5-2.6h2.4C707.9,582.8,706.8,585.2,704.4,587z
		 M694.1,574.4c-1,0.8-1.5,1.8-1.7,3c-0.1,1.2,0.3,2.6,1.1,4l7.2-5.6l-0.1-0.2c-1-1.2-2.1-1.9-3.3-2.1
		C696.2,573.3,695.1,573.6,694.1,574.4z"/>
	<path class="st8" d="M722,569.6c-0.4-0.1-1-0.4-1.7-0.9c0.2,2.1-0.4,3.9-1.7,5.4c-1.2,1.3-2.5,2.1-4.1,2.3c-1.5,0.2-2.9-0.2-4-1.3
		c-1.4-1.3-2-2.8-1.9-4.5s1.1-3.6,2.8-5.6l2-2.3l-1.1-0.9c-0.8-0.7-1.7-1.1-2.6-1c-0.9,0.1-1.8,0.6-2.6,1.5
		c-0.7,0.8-1.1,1.7-1.2,2.7s0.2,1.7,0.8,2.2l-2.1,2.3c-0.7-0.6-1.1-1.4-1.3-2.5c-0.2-1-0.1-2.1,0.2-3.3s1-2.2,1.9-3.2
		c1.4-1.6,2.9-2.5,4.4-2.7c1.6-0.2,3.1,0.3,4.5,1.5l6.3,5.5c1.3,1.1,2.4,1.8,3.4,2.2l0.2,0.2L722,569.6z M716.8,571.9
		c0.6-0.7,1.1-1.6,1.3-2.6s0.1-1.9-0.2-2.7l-2.8-2.5l-1.6,1.8c-2.5,2.9-3,5-1.3,6.5c0.7,0.6,1.5,0.9,2.4,0.8
		C715.3,573.1,716.1,572.7,716.8,571.9z"/>
</g>
<g>
	<rect x="276.9" y="91.9" class="st9" width="322" height="133"/>
	<text transform="matrix(1 0 0 1 276.8596 51.0001)" class="st8 st1 st10">Dashuhua has its origin in </text>
	<text transform="matrix(1 0 0 1 276.8596 79.8001)" class="st8 st1 st10">Nanquan ancient town, in </text>
	<text transform="matrix(1 0 0 1 276.8596 108.6001)" class="st8 st1 st10">Yuxian county, Hebei province</text>
</g>
</svg>
