<?xml version="1.0" encoding="utf-8"?>
<!-- Generator: Adobe Illustrator 24.3.2, SVG Export Plug-In . SVG Version: 6.00 Build 0)  -->
<svg version="1.1" id="Layer_1" xmlns="http://www.w3.org/2000/svg" xmlns:xlink="http://www.w3.org/1999/xlink" x="0px" y="0px"
	 viewBox="0 0 800 1145" style="enable-background:new 0 0 800 1145;" xml:space="preserve">
<style type="text/css">
	@import url('https://fonts.googleapis.com/css?family=Roboto:300,400,700');
	.st0{opacity:0.3;fill:#009FE8;}
	.st1{fill:none;stroke:#FFFFFF;stroke-miterlimit:10;}
	.st2{fill:none;stroke:#FFFFFF;stroke-width:0.3;stroke-miterlimit:10;}
	.st3{fill:none;}
	.st4{opacity:0.5;fill:#DFA784;}
	.st5{fill:#FFFFFF;}
	.st6{fill:none;stroke:#FFF000;stroke-miterlimit:10;}
	.st7{fill:#FFF000;}
	.st8{opacity:0.3;fill:#C8BB9B;}
	.st9{font-family:'Roboto';font-weight: 400;}
	.st10{font-size:24px;}
	.st11{opacity:0.3;fill:#E8CDB4;}
</style>
<rect x="-41" y="-287" width="864" height="1452"/>
<image style="overflow:visible;" width="590" height="1174" xlink:href="F1A4C11917BC49D4.png"  transform="matrix(1 0 0 1 74 -41)">
</image>
<g>
	<path class="st0" d="M537.8,343.8c0,0,22.5-9,36.5-5.4l6,2.3h2.6l1.8,1.2c0,0-0.6,5.7-0.8,6.1c-0.3,0.4-5,4-5,4s-2.8,1.4-4.9,2.1
		c-2.1,0.7-19,3-23.2,4.2c0,0-17.2,3.3-27.5,2.8l-17.5-1.4c0,0-9-1.4-11.1-2.1c0,0-2.1-1.2-2.6,0.7c0,0,0.8,1.9,1.5,3.2
		c0,0,1,1.1,2.6,0c0,0,5.3,0.4,11.3,2.2c6,1.8,15.1,4,17.1,4.3l0.4,5.4c0,0,0.3,6.1,3.8,7.9l12.1,5.1c0,0,3.2,1.4,9.9,0.7
		c0,0,14-1.3,19.2-9.3c0,0,4.2-7.5,4.3-8.8s2.2-7,2.9-7.6l0.8,3.5c0,0,2.2,6.9,5.1,7.8s6.1-4,6.1-4s6.1-10.8,5.6-19.7l0.1-6.3
		c0,0,0.3-1.9-2.2-2.8c0,0-14.3-5.8-29.3-5.1c0,0-13.3,1.7-28.1,5.7l-4.9,1.3c0,0-1.8,0.4-0.7,1.7l2.5,1.9c0,0,0.8,0.6,1.7,0
		L537.8,343.8z"/>
	<path class="st1" d="M537.8,343.8c0,0,22.5-9,36.5-5.4l6,2.3h2.6l1.8,1.2c0,0-0.6,5.7-0.8,6.1c-0.3,0.4-5,4-5,4s-2.8,1.4-4.9,2.1
		c-2.1,0.7-19,3-23.2,4.2c0,0-17.2,3.3-27.5,2.8l-17.5-1.4c0,0-9-1.4-11.1-2.1c0,0-2.1-1.2-2.6,0.7c0,0,0.8,1.9,1.5,3.2
		c0,0,1,1.1,2.6,0c0,0,5.3,0.4,11.3,2.2c6,1.8,15.1,4,17.1,4.3l0.4,5.4c0,0,0.3,6.1,3.8,7.9l12.1,5.1c0,0,3.2,1.4,9.9,0.7
		c0,0,14-1.3,19.2-9.3c0,0,4.2-7.5,4.3-8.8s2.2-7,2.9-7.6l0.8,3.5c0,0,2.2,6.9,5.1,7.8s6.1-4,6.1-4s6.1-10.8,5.6-19.7l0.1-6.3
		c0,0,0.3-1.9-2.2-2.8c0,0-14.3-5.8-29.3-5.1c0,0-13.3,1.7-28.1,5.7l-4.9,1.3c0,0-1.8,0.4-0.7,1.7l2.5,1.9c0,0,0.8,0.6,1.7,0
		L537.8,343.8z"/>
	<path class="st2" d="M583.9,348c0,0,5.4-4.3,9.3-6.7"/>
	<path class="st2" d="M577.5,352.5c0,0-7.4,2.6-14.9,5.3c-7.5,2.6-16.4,6.3-16.4,6.3s-4.6,2.5-9.7,1.5s-16.7-1.7-16.7-1.7l-2.8-0.3"
		/>
	<path class="st2" d="M540.8,366c0,0-1.1,11.9,2.4,20.8"/>
	<path class="st2" d="M518.7,361.2c0,0-3.1,1.9-0.8,4.9"/>
	<path class="st2" d="M569.9,377.8c0.4-1.8,0.1-7.9,0.1-7.9s0.8-7.2,6.3-9.6c0,0,4.3-2.8,4.6,1.1c0,0,0.8,4.9,0.8,9.6"/>
	<path class="st3" d="M590.7,341.7c0,0-7.5-2.5-16.4-3.3"/>
</g>
<g>
	<path class="st4" d="M383.7,424.2c-0.6-0.2,2.8-9.7,7.4-12.7c2-1.3,4.4-2,6.6-3.1c9.1-4.5,14-15,17.1-24c0.4-1,0.7-2,1.1-3.1
		c2-5.9,5.2-9.1,4-15.2c-1.8-9.2-1.3-16.1,0.8-25.1c5-22-18.6-40.9-38.3-43.5c-35.9-4.7-70.8,31.5-55.1,66.7
		c1.6,3.6,3.7,6.9,5.3,10.5c1.6,3.6,2.6,7.6,1.8,11.4c0,0-7.5,16.1-20.3,20c0,0,13.7-2.9,21.6,3.9c7.9,6.9,24.6,17.7,32.4,18.7
		C375.9,429.7,383.7,424.2,383.7,424.2z"/>
	<path class="st1" d="M383.7,424.2c-0.6-0.2-1.4,0.4-1.3,1c1.9-5.2,4.1-10.7,8.7-13.7c2-1.3,4.4-2,6.6-3.1c9.1-4.5,14-15,17.1-24
		c0.4-1,0.7-2,1.1-3.1c2-5.9,5.2-9.1,4-15.2c-1.8-9.2-1.3-16.1,0.8-25.1c5-22-18.6-40.9-38.3-43.5c-35.9-4.7-70.8,31.5-55.1,66.7
		c1.6,3.6,3.7,6.9,5.3,10.5c1.6,3.6,2.6,7.6,1.8,11.4c0,0-2.6,13.2-14.4,18.1"/>
	<path class="st2" d="M389.8,410.2c-5.7,0.4-11.4-1.4-16.5-4.1c-5-2.7-9.5-6.4-14-10c-2.4-1.9-4.8-3.9-7.2-5.8c-1.1-0.9-2.2-1.8-3-3
		c-1.5-2.2-1.5-5-1.5-7.7"/>
</g>
<g>
	<path class="st1" d="M319.9,157c-7.2-0.4-14.4-1.9-21.5-3.3c-7.1-1.4-14.7-3.2-19.3-8.7c-2.9-3.5-4.2-9-1.5-12.7
		c1.9-2.7,5.3-4,8.4-5c3.7-1.3,7.4-2.5,11.1-3.8c7.9-2.7,19-5.7,24.8-11.9c7-7.5,11.2-17.8,16.5-26.4c4.7-7.7,10.3-14.6,17.9-19.6
		c7.7-5.1,17.2-4.6,25.1-0.5c0,0,15.9,13.1,22,29.5c0,0,6.7,17.5,8.6,18.6c0,0,11.4,7,12.8,8.1s10.6,2.5,22.8,16.7
		c0,0,10,10.6,9.2,14.5c0,0-5.3,5-11.1,5.3c0,0-18.4,0.4-29.3-0.8"/>
	<path class="st2" d="M453.2,152.1c0,0-3.1-12.2-20-22.3s-24.8-12.2-34.5-10.3c-9.7,1.9-38.1,5.3-49,3.9c0,0-49,1.1-63.7,7.5"/>
</g>
<path class="st2" d="M381.8,338.8c0,0,20-8.1,35.5-1.5"/>
<path class="st2" d="M401.4,324.6c0,0,9.8,18.7,1,55"/>
<g>
	<g>
		<line class="st6" x1="281.9" y1="346.3" x2="281.9" y2="389.7"/>
		<g>
			<polygon class="st7" points="277.9,386.4 278.6,385.7 281.9,389.3 285.3,385.7 286,386.4 281.9,390.8 			"/>
		</g>
	</g>
</g>
<g>
	<g>
		<line class="st6" x1="281.9" y1="157.7" x2="281.9" y2="201.1"/>
		<g>
			<polygon class="st7" points="277.9,197.8 278.6,197.1 281.9,200.7 285.3,197.1 286,197.8 281.9,202.2 			"/>
		</g>
	</g>
</g>
<g>
	<g>
		<line class="st6" x1="488.8" y1="347.6" x2="437.5" y2="347.6"/>
		<g>
			<polygon class="st7" points="440.9,343.5 441.5,344.2 437.9,347.6 441.5,350.9 440.9,351.6 436.5,347.6 			"/>
		</g>
	</g>
</g>
<g>
	<g>
		<line class="st6" x1="554.6" y1="674.4" x2="400.6" y2="677.7"/>
		<g>
			<polygon class="st7" points="403.8,673.5 404.5,674.2 400.9,677.7 404.6,680.9 404,681.7 399.5,677.7 			"/>
		</g>
	</g>
</g>
<g>
	<g>
		<line class="st6" x1="209.4" y1="865.2" x2="260.7" y2="865.2"/>
		<g>
			<polygon class="st7" points="257.4,869.3 256.7,868.6 260.3,865.2 256.7,861.9 257.4,861.1 261.8,865.2 			"/>
		</g>
	</g>
</g>
<path class="st2" d="M421.6,332c15.6,2.7,29.2,4.4,45,6.1c2.4,0.3,5.1,0.4,6.9-1.3c1.9-1.8,1.7-4.9,1.2-7.6
	c-1.6-10.2-3.3-20.5-6.8-30.3c-7.4-20.8-22.8-38.7-42.4-49c-6.9-3.6-15-7.2-17.2-14.7c-0.4-1.5,0.8-2.1,0.8-3.6"/>
<path class="st8" d="M412.2,159.8c0.3,0,0.6-0.1,0.9-0.1c1.6-0.4,3.1-1.5,3.3-3c0.9-4.5-8.7-8.1-11.7-9.4c-0.1,0-0.1-0.1-0.2-0.1
	c-3.8-4.5-8.4-8.3-13.8-10.7c-12.4-5.5-26.8-3-39.8,0.7c-5.1,1.5-10.2,3.2-14.7,6.1c-11.8,7.6-17.2,22.3-18.9,36.3
	c-0.5,4.2-0.8,8.5-2.1,12.6c-3.5,10.8-13.6,18.2-22.8,24c-9.3,5.9-14,16.5-22.5,23.8c-5,4.3-10.8,7.6-15.7,12
	c-12.4,11-18.5,28-18.8,44.6c-0.1,7.3,1.1,15.4,6.7,20.2c2.2,1.9,4.9,3.1,7.5,4.3c12.8,5.8,25.5,11.6,38.3,17.4
	c8.7,3.9,17.6,7.9,27,9.1c3.7,0.4,7.5,0.4,11-1c3.4-1.4,6.3-4.5,6.7-8.2c0.2-2-0.4-4,0.1-5.9c0.8-3.7,4.6-5.8,7.5-8.2
	c5.1-4.2,8.2-10.4,10.8-16.5c2-4.7,3.8-9.6,5.4-14.5c1.4-4.3,2.6-8.6,3.7-12.9c1.5-6.2,2.9-12.7,7-17.6c5.5-6.5,14.2-7.9,21.4-11.6
	c8.1-4.2,14.8-9.9,19.6-17.8c7.5-12.4,9.5-27.4,9.4-42C417.5,180.5,416.3,169.7,412.2,159.8z M397.7,241.7c-7.9,8-22.5,6.1-32,1.1
	c-9.6-5-16.7-14.5-18.8-25.1c-1.5-7.8-0.5-15.8-0.7-23.7c-0.3-12.2-0.9-24.5,3.2-34.2l0.1,0c7.1-1.5,13.4-0.3,19.9,2.4
	c12.3,5,23.9-2.7,36.1-2.7l0.4,0.9c0.2,0.8,0.5,1.6,0.7,2.4c4.4,15.2,7.7,31.1,5.7,46.8C410.7,221.1,406,233.3,397.7,241.7z"/>
<path class="st2" d="M377.8,160.7c-2-0.5-3.6-1.9-5.3-3.1c-4.8-3.4-10.4-5.5-16.3-5.9c0.1-0.5,0.3-1,0.4-1.6"/>
<path class="st2" d="M412.1,159.6c4.1,9.9,5.3,20.8,5.4,31.6c0.1,14.5-1.9,29.5-9.4,42c-4.8,7.9-11.5,13.6-19.6,17.8
	c-7.2,3.7-15.9,5.1-21.4,11.6c-4.1,4.9-5.4,11.4-7,17.6c-1.1,4.3-2.3,8.7-3.7,12.9c-1.6,4.9-3.4,9.7-5.4,14.5
	c-2.6,6.1-5.7,12.3-10.8,16.5c-2.9,2.4-6.7,4.5-7.5,8.2c-0.4,1.9,0.1,3.9-0.1,5.9c-0.3,3.7-3.2,6.8-6.7,8.2c-3.4,1.4-7.3,1.5-11,1
	c-9.5-1.1-18.3-5.1-27-9.1c-12.8-5.8-25.5-11.6-38.3-17.4c-2.7-1.2-5.3-2.4-7.5-4.3c-5.5-4.8-6.8-12.9-6.7-20.2
	c0.3-16.6,6.4-33.6,18.8-44.6c4.9-4.4,10.7-7.7,15.7-12c8.5-7.3,13.2-17.9,22.5-23.8c9.2-5.8,19.3-13.2,22.8-24
	c1.3-4,1.6-8.3,2.1-12.6c1.7-14,7-28.6,18.9-36.3c4.5-2.9,9.6-4.6,14.7-6.1c13-3.8,27.4-6.2,39.8-0.7c5.5,2.4,10.2,6.2,14,10.8"/>
<path class="st2" d="M404.8,147.1c-2.9-1.3-5.8-2.4-8.8-3.5c-4.5-1.7-8.1-2.8-13-2.7c-4.9,0.1-9.7,1.2-14.4,2.5
	c-10.5,3.1-16.2,8.9-19.3,16.1l0.1,0c7.1-1.5,13.4-0.3,19.9,2.4c12.3,5,23.9-2.7,36.1-2.7c1,0,2,0.1,3,0.2c1.6,0.2,3.2,0.4,4.8,0.1
	c1.6-0.4,3.1-1.5,3.3-3C417.3,151.9,407.7,148.4,404.8,147.1z"/>
<path class="st2" d="M397.7,241.7c-7.9,8-22.5,6.1-32,1.1c-9.6-5-16.7-14.5-18.8-25.1c-1.5-7.8-0.5-15.8-0.7-23.7
	c-0.3-12.2-0.9-24.5,3.2-34.2l0.1,0c7.1-1.5,13.4-0.3,19.9,2.4c12.3,5,23.9-2.7,36.1-2.7l0.4,0.9c0.2,0.8,0.5,1.6,0.7,2.4
	c4.4,15.2,7.7,31.1,5.7,46.8C410.7,221.1,406,233.3,397.7,241.7z"/>
<path class="st8" d="M352.8,302.5c0,0,4.4-13,7.4-22.5s4.9-20.7,19.1-25.1c0,0,19.2-5.9,29-19.6c0,0,3.4,9.8,11.8,12.3
	c0,0,29.5,11.8,45.2,45.2c0,0,8,21.1,9.4,36.6c0,0,3.5,10.6-8.1,8.9l-45-6.1c0,0-2-14.2-8.8-18.2
	C412.7,313.8,390.1,286.3,352.8,302.5z"/>
<path class="st2" d="M167.6,1072.4c-1.2,1-2.8,1.2-4.4,1.5c-8.9,1.4-18.2,2.8-27,0.6c-25.8-6.4-21.8-44.7-22.5-64.8
	c-1.2-36.2-4.7-72.2-8.3-108.2c-0.7-7.6,6.8-15,3.2-21.7c-0.7-1.4-1.9-2.4-2.6-3.8c-0.8-1.6-0.7-3.5-0.7-5.3
	c0.3-13.7,0.7-27.4,1-41.1c0.1-3.8,0.2-7.8-1.1-11.4c-1.8-5.1-2.8-10.6-4-15.9c-0.7-3.1-1.4-6.3-2.1-9.4c-2.2-9.6-5.8-19.2,3.1-26.8
	"/>
<path class="st2" d="M196,770.5c-3.4,29.6-6.3,61.2-9.7,90.8c-0.9,7.7-1.8,15.4-4.5,22.7c-1.3,3.6-3.1,7.2-2.8,11
	c0.1,1.6,0.7,3.2,0.7,4.9c0.2,5.6-4.8,9.7-7.7,14.4c-3.3,5.2-4.3,11.4-5.2,17.5c-1.3,8.6-2.6,17.2-3.9,25.8
	c-1.4,9-0.2,16.9,0.1,25.9c0.3,8.9,0.5,17.9,0.8,26.8c0.5,17.4,1.1,35,5.1,52c0.8,3.5,1.5,7.9-1.3,10.1"/>
<path class="st2" d="M212.5,760.7c-24.7-8.2-53.3-12.8-79.3-9.2c-9.6,1.3-19.6,4.4-27.4,10.3c-9.4,7.1-2.6,12.3,6.7,13.2
	c27.9,2.8,56.2,1.3,83.6-4.6"/>
<path class="st2" d="M214.7,763.2c-2.8,23.8-2.9,49.8-11.6,72.2c-1.3,3.3-0.9,7.1-0.5,10.6c1.8,15-1.3,27.8-8.1,40.9
	c-1.1,2-2.1,4.5-1.1,6.5c0.7,1.5,2.4,3.2,1.3,4.4c2.3,8.2,6.3,21.3,4.1,30.1c-0.5,2-1.4,3.9-2.2,5.9c-1.9,4.7-3.1,9.6-4.2,14.6
	c-0.2,0.8,0.3,2.2,1,1.7c-2,4.2-5.2,7.5-3.6,11.9c0.4,1.1,1,2.2,1.5,3.3c1.9,4.6,1.4,9.7,0.8,14.6c-1.2,10-2.3,20-3.5,30
	c-1.4,12.4,5.7,26.8,2.8,39c-0.3,1.3-0.7,2.6-1.6,3.6c-0.6,0.7-1.3,1.2-2.1,1.7c-5.6,3.4-12.8,4.4-19.1,2.5c0.5-0.3,1-0.6,1.5-0.8"
	/>
<text transform="matrix(1 0 0 1 569.8586 688.9116)" class="st5 st9 st10">Willow scoop</text>
<text transform="matrix(1 0 0 1 474.9425 135.7368)" class="st5 st9 st10">Straw hat</text>
<text transform="matrix(1 0 0 1 543.7346 286.8149)"><tspan x="0" y="0" class="st5 st9 st10">Soldering</tspan><tspan x="0" y="28.8" class="st5 st9 st10">lenses</tspan></text>
<text transform="matrix(1 0 0 1 542.8254 563.5083)" class="st5 st9 st10">Gloves</text>
<text transform="matrix(1 0 0 1 102.8742 428.5259)"><tspan x="0" y="0" class="st5 st9 st10">Sheepskin</tspan><tspan x="0" y="28.8" class="st5 st9 st10">jackets</tspan></text>
<text transform="matrix(1 0 0 1 102.8742 190.0728)"><tspan x="0" y="0" class="st5 st9 st10">Head</tspan><tspan x="0" y="28.8" class="st5 st9 st10">and shoulder </tspan><tspan x="0" y="57.6" class="st5 st9 st10">protector</tspan></text>
<text transform="matrix(1 0 0 1 99.6701 691.8979)"><tspan x="0" y="0" class="st5 st9 st10">Protective</tspan><tspan x="0" y="28.8" class="st5 st9 st10">trousers</tspan></text>
<text transform="matrix(1 0 0 1 396.0617 1115.4438)" class="st5 st9 st10">Leather shoes</text>
<path class="st11" d="M292.8,788.8c8.2,4.6,14.2,11.4,23.5,15.1c9.7,3.9,20.1,5.8,30.5,6.1c12.5,0.4,24.7-5.2,36.2-5.2
	c-0.8,9.3-5.3,17.7-6.4,26.9c-8.1,69.9-30.9,136.3-32.7,207.3c-0.2,7.3-1,16.1-7.4,19.6c-2.2,1.2-4.7,1.5-7.2,1.8
	c-18.6,2.4-38,4.8-55.7-1.2c-2.2-0.7-4.6-1.8-5.7-3.8c-1.1-2.1-0.7-4.6-0.3-7c4.1-23,3.6-46.7,1.9-70c-0.3-3.6-0.5-7.3-0.4-11
	c0.1-3.6,0.5-7.1,1-10.7c2.1-16.5,4.2-33,6.2-49.5c5.2-41.2,10.4-82.6,9.7-124.2C288.6,784.4,290.1,787.3,292.8,788.8z"/>
<path class="st2" d="M292.8,788.8c8.2,4.6,14.2,11.4,23.5,15.1c9.7,3.9,20.1,5.8,30.5,6.1c12.5,0.4,24.7-5.2,36.2-5.2
	c-0.8,9.3-5.3,17.7-6.4,26.9c-8.1,69.9-30.9,136.3-32.7,207.3c-0.2,7.3-1,16.1-7.4,19.6c-2.2,1.2-4.7,1.5-7.2,1.8
	c-18.6,2.4-38,4.8-55.7-1.2c-2.2-0.7-4.6-1.8-5.7-3.8c-1.1-2.1-0.7-4.6-0.3-7c4.1-23,3.6-46.7,1.9-70c-0.3-3.6-0.5-7.3-0.4-11
	c0.1-3.6,0.5-7.1,1-10.7c2.1-16.5,4.2-33,6.2-49.5c5.2-41.2,10.4-82.6,9.7-124.2C288.6,784.4,290.1,787.3,292.8,788.8z"/>
</svg>
